<svg width="24" height="25" viewBox="0 0 24 25" fill="none" xmlns="http://www.w3.org/2000/svg">
<g clip-path="url(#clip0_2164_36)">
<path fill-rule="evenodd" clip-rule="evenodd" d="M12 2.84998C6.61522 2.84998 2.25 7.2152 2.25 12.6C2.25 17.9848 6.61522 22.35 12 22.35C17.3848 22.35 21.75 17.9848 21.75 12.6C21.7443 7.21756 17.3824 2.85566 12 2.84998ZM20.25 12.6C20.2508 13.6584 20.0471 14.707 19.65 15.6881L15.4594 13.1109C15.2812 13.001 15.0819 12.9297 14.8744 12.9019L12.735 12.6131C12.1323 12.5345 11.5412 12.8249 11.235 13.35H10.4175L10.0612 12.6131C9.86166 12.1973 9.48093 11.8972 9.03 11.8003L8.28 11.6381L9.01313 10.35H10.5797C10.8332 10.3495 11.0824 10.285 11.3044 10.1625L12.4528 9.52873C12.5537 9.47248 12.648 9.40519 12.7341 9.3281L15.2569 7.04623C15.7779 6.57929 15.9049 5.81322 15.5625 5.2031L15.5288 5.14216C18.4101 6.5084 20.2477 9.41113 20.25 12.6ZM13.4353 4.4756L14.25 5.93435L11.7272 8.21623L10.5797 8.84998H9.01313C8.47644 8.84918 7.98022 9.13519 7.71187 9.59998L6.89344 11.0278L5.94187 8.49279L6.9675 6.06748C8.80317 4.64912 11.1518 4.07047 13.4362 4.47373L13.4353 4.4756ZM3.75 12.6C3.74875 11.3737 4.02233 10.1628 4.55062 9.05623L5.61375 11.894C5.79378 12.3715 6.20418 12.7247 6.70312 12.8315L8.71219 13.2637L9.06938 14.0062C9.32224 14.5214 9.84551 14.8484 10.4194 14.85H10.5581L9.88031 16.3715C9.63621 16.9192 9.74165 17.5595 10.1484 18L10.1616 18.0131L12 19.9069L11.8181 20.8444C7.33749 20.7401 3.75743 17.0818 3.75 12.6ZM13.3669 20.7356L13.4728 20.1909C13.5611 19.7217 13.422 19.2383 13.0978 18.8878C13.0932 18.8837 13.0888 18.8793 13.0847 18.8747L11.25 16.9818L12.5344 14.1L14.6737 14.3887L18.96 17.025C17.7042 18.9971 15.6721 20.3453 13.3669 20.7356Z" fill="#171712"/>
</g>
<defs>
<clipPath id="clip0_2164_36">
<rect width="24" height="24" fill="white" transform="translate(0 0.599976)"/>
</clipPath>
</defs>
</svg>
