<svg width="24" height="25" viewBox="0 0 24 25" fill="none" xmlns="http://www.w3.org/2000/svg">
<g clip-path="url(#clip0_2164_49)">
<path fill-rule="evenodd" clip-rule="evenodd" d="M22.5 19.7H21V9.19995C21 8.37152 20.3284 7.69995 19.5 7.69995H13.5V3.19995C13.5004 2.64649 13.1959 2.13779 12.708 1.87657C12.22 1.61534 11.6279 1.64403 11.1675 1.9512L3.6675 6.94995C3.24962 7.22875 2.99905 7.69823 3 8.20058V19.7H1.5C1.08579 19.7 0.75 20.0357 0.75 20.45C0.75 20.8642 1.08579 21.2 1.5 21.2H22.5C22.9142 21.2 23.25 20.8642 23.25 20.45C23.25 20.0357 22.9142 19.7 22.5 19.7ZM19.5 9.19995V19.7H13.5V9.19995H19.5ZM4.5 8.20058L12 3.19995V19.7H4.5V8.20058ZM10.5 10.7V12.2C10.5 12.6142 10.1642 12.95 9.75 12.95C9.33579 12.95 9 12.6142 9 12.2V10.7C9 10.2857 9.33579 9.94995 9.75 9.94995C10.1642 9.94995 10.5 10.2857 10.5 10.7ZM7.5 10.7V12.2C7.5 12.6142 7.16421 12.95 6.75 12.95C6.33579 12.95 6 12.6142 6 12.2V10.7C6 10.2857 6.33579 9.94995 6.75 9.94995C7.16421 9.94995 7.5 10.2857 7.5 10.7ZM7.5 15.95V17.45C7.5 17.8642 7.16421 18.2 6.75 18.2C6.33579 18.2 6 17.8642 6 17.45V15.95C6 15.5357 6.33579 15.2 6.75 15.2C7.16421 15.2 7.5 15.5357 7.5 15.95ZM10.5 15.95V17.45C10.5 17.8642 10.1642 18.2 9.75 18.2C9.33579 18.2 9 17.8642 9 17.45V15.95C9 15.5357 9.33579 15.2 9.75 15.2C10.1642 15.2 10.5 15.5357 10.5 15.95Z" fill="#171712"/>
</g>
<defs>
<clipPath id="clip0_2164_49">
<rect width="24" height="24" fill="white" transform="translate(0 0.199951)"/>
</clipPath>
</defs>
</svg>
