<svg width="24" height="25" viewBox="0 0 24 25" fill="none" xmlns="http://www.w3.org/2000/svg">
<g clip-path="url(#clip0_2164_62)">
<path fill-rule="evenodd" clip-rule="evenodd" d="M21.75 6.80005H19.5V6.05005C19.5 5.22162 18.8284 4.55005 18 4.55005H6C5.17157 4.55005 4.5 5.22162 4.5 6.05005V6.80005H2.25C1.42157 6.80005 0.75 7.47162 0.75 8.30005V9.80005C0.75 11.8711 2.42893 13.55 4.5 13.55H4.84219C5.74518 16.4117 8.26452 18.4614 11.25 18.7635V21.05H9C8.58579 21.05 8.25 21.3858 8.25 21.8C8.25 22.2143 8.58579 22.55 9 22.55H15C15.4142 22.55 15.75 22.2143 15.75 21.8C15.75 21.3858 15.4142 21.05 15 21.05H12.75V18.7607C15.7444 18.4579 18.2288 16.3569 19.1325 13.55H19.5C21.5711 13.55 23.25 11.8711 23.25 9.80005V8.30005C23.25 7.47162 22.5784 6.80005 21.75 6.80005ZM4.5 12.05C3.25736 12.05 2.25 11.0427 2.25 9.80005V8.30005H4.5V11.3C4.5 11.55 4.51219 11.8 4.53656 12.05H4.5ZM18 11.2157C18 14.5457 15.3291 17.2757 12.0459 17.3H12C8.68629 17.3 6 14.6138 6 11.3V6.05005H18V11.2157ZM21.75 9.80005C21.75 11.0427 20.7426 12.05 19.5 12.05H19.4531C19.4839 11.773 19.4995 11.4944 19.5 11.2157V8.30005H21.75V9.80005Z" fill="#171712"/>
</g>
<defs>
<clipPath id="clip0_2164_62">
<rect width="24" height="24" fill="white" transform="translate(0 0.800049)"/>
</clipPath>
</defs>
</svg>
