<svg width="24" height="24" viewBox="0 0 24 24" fill="none" xmlns="http://www.w3.org/2000/svg">
<g clip-path="url(#clip0_2104_51)">
<path fill-rule="evenodd" clip-rule="evenodd" d="M18.5231 12.0994L13.6847 10.3181L11.9034 5.47594C11.6874 4.88898 11.1283 4.499 10.5028 4.499C9.87736 4.499 9.31824 4.88898 9.10219 5.47594L7.31906 10.3125L2.47688 12.0938C1.88992 12.3098 1.49994 12.8689 1.49994 13.4944C1.49994 14.1198 1.88992 14.6789 2.47688 14.895L7.3125 16.6875L9.09375 21.5269C9.3098 22.1138 9.86892 22.5038 10.4944 22.5038C11.1198 22.5038 11.6789 22.1138 11.895 21.5269L13.6763 16.6884L18.5184 14.9072C19.1054 14.6911 19.4954 14.132 19.4954 13.5066C19.4954 12.8811 19.1054 12.322 18.5184 12.1059L18.5231 12.0994ZM13.1616 15.2812C12.7513 15.4318 12.4281 15.7551 12.2775 16.1653L10.4963 20.9897L8.71875 16.1616C8.56809 15.7536 8.24644 15.4319 7.83844 15.2812L3.01406 13.5L7.83844 11.7188C8.24644 11.5681 8.56809 11.2464 8.71875 10.8384L10.5 6.01406L12.2812 10.8384C12.4318 11.2487 12.7551 11.5719 13.1653 11.7225L17.9897 13.5037L13.1616 15.2812ZM13.5 3.75C13.5 3.33579 13.8358 3 14.25 3H15.75V1.5C15.75 1.08579 16.0858 0.75 16.5 0.75C16.9142 0.75 17.25 1.08579 17.25 1.5V3H18.75C19.1642 3 19.5 3.33579 19.5 3.75C19.5 4.16421 19.1642 4.5 18.75 4.5H17.25V6C17.25 6.41421 16.9142 6.75 16.5 6.75C16.0858 6.75 15.75 6.41421 15.75 6V4.5H14.25C13.8358 4.5 13.5 4.16421 13.5 3.75ZM23.25 8.25C23.25 8.66421 22.9142 9 22.5 9H21.75V9.75C21.75 10.1642 21.4142 10.5 21 10.5C20.5858 10.5 20.25 10.1642 20.25 9.75V9H19.5C19.0858 9 18.75 8.66421 18.75 8.25C18.75 7.83579 19.0858 7.5 19.5 7.5H20.25V6.75C20.25 6.33579 20.5858 6 21 6C21.4142 6 21.75 6.33579 21.75 6.75V7.5H22.5C22.9142 7.5 23.25 7.83579 23.25 8.25Z" fill="#171412"/>
</g>
<defs>
<clipPath id="clip0_2104_51">
<rect width="24" height="24" fill="white"/>
</clipPath>
</defs>
</svg>
